<?xml version="1.0" encoding="UTF-8"?>
<svg width="512px" height="512px" viewBox="0 0 512 512" version="1.1" xmlns="http://www.w3.org/2000/svg" xmlns:xlink="http://www.w3.org/1999/xlink">
    <!-- Generator: Sketch 46.2 (44496) - http://www.bohemiancoding.com/sketch -->
    <title>icon</title>
    <desc>Created with Sketch.</desc>
    <defs></defs>
    <g id="Page-1" stroke="none" stroke-width="1" fill="none" fill-rule="evenodd">
        <g id="icon">
            <g id="Group">
                <circle id="Oval-Copy-2" fill="#44B9C1" cx="256" cy="256" r="256"></circle>
                <g transform="translate(99.000000, 99.000000)" id="Shape" fill-rule="nonzero" fill="#FFFFFF">
                    <path d="M158,0 C70.8763854,0 0,70.8763854 0,158 C0,245.119415 70.8763854,316 158,316 C245.119415,316 316,245.119415 316,158 C316,70.8763854 245.119415,0 158,0 Z M158,303.401993 C77.8262857,303.401993 12.5980066,238.177914 12.5980066,158 C12.5980066,77.8262857 77.8262857,12.5980066 158,12.5980066 C238.177914,12.5980066 303.401993,77.8262857 303.401993,158 C303.401993,238.177914 238.177914,303.401993 158,303.401993 Z"></path>
                    <path d="M164.341005,149.692731 L164.341005,112.610826 C174.013152,113.730201 180.39643,117.457257 186.187882,122.991244 C188.255049,125.041335 190.326444,125.297072 191.615782,125.297072 C195.754345,125.297072 199.115078,121.964102 199.115078,117.859729 C199.115078,115.549708 198.07938,114.015285 197.30155,112.988143 C190.279944,103.773217 178.887271,98.1092648 164.336778,96.8473481 L164.336778,68.2886215 C164.336778,64.81311 161.500235,62 157.995773,62 C154.49131,62 151.654767,64.81311 151.654767,68.2886215 L151.654767,96.8892722 C132.733208,98.637509 118.432128,108.418412 118.432128,127.607092 C118.432128,148.313427 134.918741,156.270629 151.654767,162.173548 L151.654767,203.288556 C140.946923,201.963753 132.762799,197.733607 126.189291,191.21021 C124.122123,189.155927 122.050728,188.648645 120.499295,188.648645 C116.360733,188.648645 113,191.981615 113,196.081796 C113,197.876149 113.519962,199.159028 114.813527,200.953381 C120.731799,208.407494 134.081729,217.03129 151.658995,218.99334 L151.658995,247.711378 C151.658995,251.182698 154.495538,254 158,254 C161.504462,254 164.341005,251.182698 164.341005,247.711378 L164.341005,219.232308 C186.331611,217.790117 203,207.195886 203,185.571413 C203,163.171343 182.746829,155.985545 164.341005,149.692731 Z M134.986379,127.607092 C134.986379,117.985501 142.557539,113.822434 151.658995,112.615018 L151.658995,145.081075 C142.071395,141.131821 134.986379,136.289582 134.986379,127.607092 Z M164.341005,203.548486 L164.341005,166.504313 C176.566463,170.797345 186.445749,175.501234 186.445749,185.567221 C186.445749,197.264057 176.689056,202.454266 164.341005,203.548486 Z"></path>
                </g>
            </g>
        </g>
    </g>
</svg>